<svg width="41" height="40" viewBox="0 0 45 45" fill="none" xmlns="http://www.w3.org/2000/svg">
<path d="M38.9666 18.2679C37.1433 18.8906 35.9249 20.6123 35.9442 22.5389C35.9459 28.6376 31.8406 33.9729 25.945 35.5341C20.0494 37.0952 13.8416 34.4907 10.8249 29.1903C7.8081 23.8899 8.73869 17.2226 13.0915 12.9508C17.4443 8.67899 24.1279 7.87377 29.3708 10.9895C30.0369 11.4011 30.3042 12.2363 30.0008 12.9582C28.7528 16.0081 25.7964 18.0111 22.5011 18.0391C20.6651 18.0422 19.0123 19.1524 18.3149 20.8508C17.6176 22.5492 18.0136 24.5005 19.3177 25.7929C20.6219 27.0852 22.5768 27.4633 24.2688 26.7505C25.9608 26.0377 27.0558 24.3748 27.0422 22.5389V22.4714C27.0372 18.6912 29.6281 15.4022 33.3043 14.5218C33.9181 14.3721 34.5475 14.2966 35.1792 14.2968C36.9928 14.2898 38.627 13.2008 39.3318 11.5299C40.0367 9.85887 39.676 7.92851 38.4153 6.62477C38.3922 6.59793 38.3672 6.57286 38.3403 6.54977C30.7246 -0.999431 18.8394 -2.1247 9.94217 3.8611C1.04496 9.84689 -2.39125 21.28 1.73181 31.1789C5.85486 41.0779 16.3912 46.6913 26.9069 44.5915C37.4227 42.4916 44.995 33.2622 45 22.5389C44.9926 21.0724 44.2781 19.6997 43.0812 18.8525C41.8843 18.0052 40.3521 17.7875 38.9666 18.2679Z" fill="#ED1D52"/>
</svg>
