<svg width="278" height="200" viewBox="0 0 278 200" fill="none" xmlns="http://www.w3.org/2000/svg">
<g clip-path="url(#clip0_10096_34848)">
<path d="M142.418 51.2299H82.2741C81.352 51.2299 80.6348 50.5127 80.6348 49.5905V14.6008C80.6348 13.6786 81.352 12.9614 82.2741 12.9614H142.418C143.34 12.9614 144.057 13.6786 144.057 14.6008V49.5905C144.057 50.5127 143.288 51.2299 142.418 51.2299Z" stroke="#CACACA" stroke-miterlimit="10"/>
<path d="M80.6348 19.8774H144.057" stroke="#CACACA" stroke-miterlimit="10"/>
<path d="M84.7336 17.4696C85.2994 17.4696 85.7582 17.0109 85.7582 16.445C85.7582 15.8791 85.2994 15.4204 84.7336 15.4204C84.1677 15.4204 83.709 15.8791 83.709 16.445C83.709 17.0109 84.1677 17.4696 84.7336 17.4696Z" stroke="#CACACA" stroke-miterlimit="10"/>
<path d="M89.9066 16.445C89.9066 17.0085 89.4456 17.4696 88.882 17.4696C88.3185 17.4696 87.8574 17.0085 87.8574 16.445C87.8574 15.8815 88.3185 15.4204 88.882 15.4204C89.4456 15.4716 89.9066 15.9327 89.9066 16.445Z" stroke="#CACACA" stroke-miterlimit="10"/>
<path d="M94.1078 16.445C94.1078 17.0085 93.6467 17.4696 93.0832 17.4696C92.5197 17.4696 92.0586 17.0085 92.0586 16.445C92.0586 15.8815 92.5197 15.4204 93.0832 15.4204C93.6467 15.4716 94.1078 15.9327 94.1078 16.445Z" stroke="#CACACA" stroke-miterlimit="10"/>
<path d="M47.3861 55.2767H62.3964C63.8308 55.2767 65.0091 54.0984 65.0091 52.664V37.6537C65.0091 36.2193 63.8308 35.041 62.3964 35.041H47.3861C45.9517 35.041 44.7734 36.2193 44.7734 37.6537V52.664C44.7734 54.0984 45.9517 55.2767 47.3861 55.2767Z" stroke="#CACACA" stroke-miterlimit="10" stroke-linejoin="round"/>
<path d="M54.8651 50.9221C58.0622 50.9221 60.654 48.3303 60.654 45.1332C60.654 41.936 58.0622 39.3442 54.8651 39.3442C51.668 39.3442 49.0762 41.936 49.0762 45.1332C49.0762 48.3303 51.668 50.9221 54.8651 50.9221Z" stroke="#CACACA" stroke-width="3" stroke-miterlimit="10"/>
<path d="M58.81 41.0347L50.6133 49.2314" stroke="#CACACA" stroke-width="3" stroke-miterlimit="10"/>
<path d="M193.646 49.1292L189.445 44.7747H124.845C121.822 44.7747 119.363 42.3157 119.363 39.2932V12.5206C119.363 9.49808 121.822 7.03906 124.845 7.03906H189.753C192.775 7.03906 195.234 9.49808 195.234 12.5206V48.5145C195.234 49.3341 194.21 49.744 193.646 49.1292Z" fill="white" stroke="#CACACA" stroke-miterlimit="10" stroke-linejoin="round"/>
<path d="M260.04 114.191H275.05C276.485 114.191 277.663 113.012 277.663 111.578V96.5678C277.663 95.1334 276.485 93.9551 275.05 93.9551H260.04C258.606 93.9551 257.427 95.1334 257.427 96.5678V111.578C257.376 113.012 258.554 114.191 260.04 114.191Z" stroke="#CACACA" stroke-miterlimit="10" stroke-linejoin="round"/>
<path d="M274.026 109.734C273.974 109.785 273.872 109.785 273.769 109.785H261.218C260.962 109.785 260.706 109.631 260.604 109.426C260.45 109.221 260.45 108.914 260.604 108.709L266.905 97.8484C267.058 97.6434 267.263 97.4897 267.519 97.4897C267.776 97.4897 268.032 97.6434 268.134 97.8484L274.435 108.709C274.589 108.914 274.589 109.221 274.435 109.426C274.333 109.58 274.179 109.682 274.026 109.734ZM261.577 108.863H273.462L267.519 98.5656L261.577 108.863Z" fill="#CACACA"/>
<path d="M267.52 106.711C267.264 106.711 267.11 106.506 267.059 106.301L266.803 101.998C266.803 101.588 267.11 101.281 267.52 101.281C267.93 101.281 268.237 101.588 268.237 101.998L267.981 106.301C267.93 106.506 267.776 106.711 267.52 106.711Z" fill="#CACACA"/>
<path d="M267.981 107.735C267.981 107.992 267.776 108.197 267.52 108.197C267.264 108.197 267.059 107.992 267.059 107.735C267.059 107.479 267.264 107.274 267.52 107.274C267.776 107.274 267.981 107.479 267.981 107.735Z" fill="#CACACA"/>
<path d="M2.56074 78.0226C2.56074 78.6373 2.04844 79.1496 1.43369 79.1496C0.818936 79.1496 0.306641 78.6373 0.306641 78.0226C0.306641 77.4078 0.818936 76.8955 1.43369 76.8955C2.04844 76.8955 2.56074 77.4078 2.56074 78.0226Z" stroke="#CACACA" stroke-miterlimit="10" stroke-linecap="round" stroke-linejoin="round"/>
<path d="M194.313 138.883C194.313 139.498 193.8 140.01 193.186 140.01C192.571 140.01 192.059 139.498 192.059 138.883C192.059 138.269 192.571 137.756 193.186 137.756C193.8 137.756 194.313 138.269 194.313 138.883Z" stroke="#CACACA" stroke-miterlimit="10" stroke-linecap="round" stroke-linejoin="round"/>
<path d="M272.797 45.1334C272.797 45.7482 272.285 46.2604 271.67 46.2604C271.055 46.2604 270.543 45.7482 270.543 45.1334C270.543 44.5186 271.055 44.0063 271.67 44.0063C272.285 44.0063 272.797 44.5186 272.797 45.1334Z" stroke="#CACACA" stroke-miterlimit="10" stroke-linecap="round" stroke-linejoin="round"/>
<path d="M211.168 9.83603C211.168 10.4508 210.656 10.9631 210.041 10.9631C209.426 10.9631 208.914 10.4508 208.914 9.83603C208.914 9.22128 209.426 8.70898 210.041 8.70898C210.656 8.70898 211.168 9.22128 211.168 9.83603Z" stroke="#CACACA" stroke-miterlimit="10" stroke-linecap="round" stroke-linejoin="round"/>
<path d="M270.49 82.4795V86.0143" stroke="#CACACA" stroke-miterlimit="10" stroke-linecap="round" stroke-linejoin="round"/>
<path d="M272.232 84.2212H268.697" stroke="#CACACA" stroke-miterlimit="10" stroke-linecap="round" stroke-linejoin="round"/>
<path d="M178.074 150.563V154.098" stroke="#CACACA" stroke-miterlimit="10" stroke-linecap="round" stroke-linejoin="round"/>
<path d="M179.867 152.356H176.332" stroke="#CACACA" stroke-miterlimit="10" stroke-linecap="round" stroke-linejoin="round"/>
<path d="M103.328 3.33008V6.86491" stroke="#CACACA" stroke-miterlimit="10" stroke-linecap="round" stroke-linejoin="round"/>
<path d="M105.07 5.07178H101.535" stroke="#CACACA" stroke-miterlimit="10" stroke-linecap="round" stroke-linejoin="round"/>
<path d="M24.1797 37.5V41.0348" stroke="#CACACA" stroke-miterlimit="10" stroke-linecap="round" stroke-linejoin="round"/>
<path d="M25.9723 39.2417H22.4375" stroke="#CACACA" stroke-miterlimit="10" stroke-linecap="round" stroke-linejoin="round"/>
<path d="M18.4414 118.853V122.387" stroke="#CACACA" stroke-miterlimit="10" stroke-linecap="round" stroke-linejoin="round"/>
<path d="M20.1833 120.646H16.6484" stroke="#CACACA" stroke-miterlimit="10" stroke-linecap="round" stroke-linejoin="round"/>
<path d="M218.801 23.3096V26.8444" stroke="#CACACA" stroke-miterlimit="10" stroke-linecap="round" stroke-linejoin="round"/>
<path d="M220.593 25.1025H217.059" stroke="#CACACA" stroke-miterlimit="10" stroke-linecap="round" stroke-linejoin="round"/>
<path d="M44.7235 98.7707H9.3751C8.76034 98.7707 8.24805 98.2584 8.24805 97.6437C8.24805 97.0289 8.76034 96.5166 9.3751 96.5166H44.7747C45.3894 96.5166 45.9017 97.0289 45.9017 97.6437C45.8505 98.2584 45.3382 98.7707 44.7235 98.7707Z" stroke="#CACACA" stroke-miterlimit="10"/>
<path d="M253.023 70.4919H217.623C217.008 70.4919 216.496 69.9796 216.496 69.3648C216.496 68.7501 217.008 68.2378 217.623 68.2378H253.023C253.638 68.2378 254.15 68.7501 254.15 69.3648C254.15 69.9796 253.638 70.4919 253.023 70.4919Z" stroke="#CACACA" stroke-miterlimit="10"/>
<path d="M258.195 78.0226H245.132C244.825 78.0226 244.568 77.7664 244.568 77.459C244.568 77.1517 244.825 76.8955 245.132 76.8955H258.195C258.503 76.8955 258.759 77.1517 258.759 77.459C258.759 77.7664 258.503 78.0226 258.195 78.0226Z" fill="#CACACA"/>
<path d="M223.565 51.3834H210.501C210.194 51.3834 209.938 51.1272 209.938 50.8199C209.938 50.5125 210.194 50.2563 210.501 50.2563H223.565C223.872 50.2563 224.128 50.5125 224.128 50.8199C224.128 51.1272 223.872 51.3834 223.565 51.3834Z" fill="#CACACA"/>
<path d="M31.6084 88.8321H21.5674C21.2601 88.8321 21.0039 88.576 21.0039 88.2686C21.0039 87.9612 21.2601 87.7051 21.5674 87.7051H31.5572C31.8646 87.7051 32.1207 87.9612 32.1207 88.2686C32.1207 88.6272 31.9158 88.8321 31.6084 88.8321Z" fill="#CACACA"/>
<path d="M233.503 39.4983H244.312C245.337 39.4983 246.208 38.6274 246.208 37.6028V26.7422C246.208 25.7176 245.337 24.8467 244.312 24.8467H233.503C232.478 24.8467 231.607 25.7176 231.607 26.7422V37.5516C231.607 38.6274 232.427 39.4983 233.503 39.4983Z" stroke="#CACACA" stroke-miterlimit="10" stroke-linejoin="round"/>
<path d="M240.983 31.5579L240.727 32.8386H242.11V33.9657H240.522L240.112 36.1686H238.934L239.344 33.9657H237.807L237.397 36.1686H236.219L236.628 33.9657H235.348V32.7874H236.833L237.089 31.5067H235.706V30.3796H237.294L237.704 28.1768H238.882L238.473 30.3796H240.01L240.419 28.1768H241.598L241.188 30.3796H242.469V31.5067H240.983V31.5579ZM238.012 32.7874H239.548L239.805 31.5067H238.268L238.012 32.7874Z" fill="#CACACA"/>
<path d="M115.778 140.625L105.532 73.2583H59.2715L70.3371 144.621C71.1055 149.437 75.1014 152.869 80.1219 152.869H157.888L158.452 146.312H122.54C119.108 146.363 116.29 144.006 115.778 140.625Z" fill="#555555"/>
<path d="M72.0269 140.625L62.1396 75.7685C61.9347 74.2829 60.7052 73.2583 59.2195 73.2583H59.117C57.0166 73.2583 55.2748 75.2563 55.5822 77.2542L66.033 144.621C66.8015 149.437 70.7974 152.869 75.8179 152.869H125.92L126.484 146.312H78.7892C75.3056 146.363 72.4879 144.006 72.0269 140.625Z" fill="#7A7A7A"/>
<path d="M103.328 152.869V189.652" stroke="#4C4C4C" stroke-width="1.5" stroke-miterlimit="10"/>
<path d="M82.6836 192.931C82.6836 191.138 84.118 189.703 85.9111 189.703H120.645C122.438 189.703 123.872 191.138 123.872 192.931" stroke="#4C4C4C" stroke-width="1.5" stroke-miterlimit="10"/>
<path d="M99.7422 192.931C99.7422 191.138 101.177 189.703 102.97 189.703" stroke="#4C4C4C" stroke-width="1.5" stroke-miterlimit="10"/>
<path d="M85.9617 196.209C85.9617 198.002 84.476 199.488 82.683 199.488C80.8899 199.488 79.4043 198.002 79.4043 196.209C79.4043 194.416 80.8899 192.931 82.683 192.931C84.5272 192.931 85.9617 194.365 85.9617 196.209Z" fill="#7A7A7A"/>
<g opacity="0.45">
<path d="M83.9121 196.209C83.9121 196.875 83.3486 197.439 82.6826 197.439C82.0166 197.439 81.4531 196.875 81.4531 196.209C81.4531 195.543 82.0166 194.98 82.6826 194.98C83.3486 194.98 83.9121 195.543 83.9121 196.209Z" fill="#A3A3A3"/>
</g>
<path d="M103.02 196.209C103.02 198.002 101.535 199.488 99.7416 199.488C97.9485 199.488 96.4629 198.002 96.4629 196.209C96.4629 194.416 97.9485 192.931 99.7416 192.931C101.586 192.931 103.02 194.365 103.02 196.209Z" fill="#7A7A7A"/>
<g opacity="0.45">
<path d="M100.973 196.209C100.973 196.875 100.409 197.439 99.7432 197.439C99.0772 197.439 98.5137 196.875 98.5137 196.209C98.5137 195.543 99.0772 194.98 99.7432 194.98C100.409 194.98 100.973 195.543 100.973 196.209Z" fill="#A3A3A3"/>
</g>
<path d="M127.202 196.209C127.202 198.002 125.716 199.488 123.923 199.488C122.13 199.488 120.645 198.002 120.645 196.209C120.645 194.416 122.13 192.931 123.923 192.931C125.716 192.931 127.202 194.365 127.202 196.209Z" fill="#7A7A7A"/>
<g opacity="0.45">
<path d="M125.152 196.209C125.152 196.875 124.589 197.439 123.923 197.439C123.257 197.439 122.693 196.875 122.693 196.209C122.693 195.543 123.257 194.98 123.923 194.98C124.589 194.98 125.152 195.543 125.152 196.209Z" fill="#A3A3A3"/>
</g>
<path d="M139.496 80.4814L151.228 62.9609L154.865 63.7294C152.099 73.1044 150.254 76.7929 150.254 76.7929" fill="#D9D9D9"/>
<path d="M152.97 66.6496L154.815 63.7295C154.815 63.7295 158.298 62.9099 159.579 62.2951C160.86 61.6291 161.679 60.5021 162.038 59.5287C162.294 58.8115 162.192 56.6086 161.884 56.5574C161.116 56.455 159.63 59.2726 158.964 59.4263C158.247 59.58 155.993 59.4263 154.763 59.58C152.663 59.8361 151.792 61.8341 151.792 61.8341L149.896 65.3177" fill="#D9D9D9"/>
<path d="M147.131 68.1353L149.18 65.1128L154.508 67.5206L152.817 72.0288" fill="#E6E8EF"/>
<path d="M104.354 61.8855C104.354 61.8855 113.011 57.8896 120.696 64.7031C128.329 71.5166 133.503 77.8179 136.321 79.8671L147.847 66.5986L154.302 69.6212C152.612 79.2011 147.847 94.5187 136.167 96.1068C123.565 97.7974 105.071 82.2748 105.071 82.2748" fill="#B6B6B6"/>
<path d="M132.58 84.2212L136.32 79.8154" stroke="#727272" stroke-miterlimit="10"/>
<path d="M150.973 193.955L150 197.695C149.744 198.617 150.461 199.488 151.383 199.488H162.705C163.371 199.488 163.934 198.924 163.934 198.258C163.934 197.746 163.576 197.234 163.063 197.08L155.328 193.955" fill="#363636"/>
<path d="M144.467 135.451C142.674 154.508 151.025 193.904 151.025 193.904C151.025 193.904 153.023 196.311 155.43 193.904C155.43 193.904 157.428 156.301 159.58 139.395" fill="#D9D9D9"/>
<path d="M117.417 113.166L130.429 119.98V120.133C130.429 120.133 157.017 118.34 161.013 127.818C167.314 142.674 168.39 190.984 168.39 190.984H148.923C148.923 190.984 141.699 150.41 139.189 147.951C136.73 145.492 126.536 145.646 107.734 145.646C86.679 145.646 96.9249 118.494 104.814 116.137" fill="#B1B1B1"/>
<path d="M150.256 190.983C150.256 190.983 144.467 149.129 140.215 146.055C135.04 142.315 110.553 144.774 110.553 144.774" stroke="#989898" stroke-miterlimit="10"/>
<path d="M110.245 193.955L109.271 197.695C109.015 198.617 109.732 199.488 110.654 199.488H121.976C122.642 199.488 123.206 198.924 123.206 198.258C123.206 197.746 122.847 197.234 122.335 197.08L114.599 193.955" fill="#363636"/>
<path d="M112.089 135.451C110.296 154.508 110.193 193.904 110.193 193.904C110.193 193.904 112.191 196.311 114.599 193.904C114.599 193.904 121.413 156.301 123.564 139.395" fill="#D9D9D9"/>
<path d="M94.4146 119.16C94.4146 119.16 128.585 119.723 133.042 130.072C138.523 142.777 129.456 191.035 129.456 191.035H108.861V147.9C108.861 147.08 108.195 146.311 107.376 146.311C104.507 146.363 98.1543 146.363 90.1113 146.363C69.0559 146.363 79.3019 113.576 87.1912 111.219" fill="#BFBFBF"/>
<path d="M94.4141 119.16C94.4141 119.16 128.584 119.723 133.041 130.072C134.527 133.504 135.295 139.395 134.885 146.363" stroke="#989898" stroke-miterlimit="10"/>
<path d="M111.782 190.984C111.782 190.984 111.987 147.695 111.014 145.389C109.631 142.162 104.917 143.75 93.9543 143.75C72.899 143.75 81.4543 113.576 89.2924 111.271" stroke="#989898" stroke-miterlimit="10"/>
<path d="M81.2988 124.437C81.2988 124.437 92.1083 124.693 93.7476 123.053C95.387 121.414 93.7476 113.986 93.7476 113.986" stroke="#989898" stroke-miterlimit="10"/>
<path d="M81.043 125.871C81.043 125.871 93.3893 126.127 95.2848 124.488C97.1803 122.848 95.2848 115.42 95.2848 115.42" stroke="#989898" stroke-miterlimit="10" stroke-dasharray="3 3"/>
<path d="M78.9949 74.0779C78.9949 74.0779 76.3821 120.133 80.3268 120.133C84.2715 120.133 127.868 119.98 130.429 119.98C132.991 119.98 126.997 80.584 118.39 72.2849C118.39 72.2849 105.634 58.4016 99.9989 59.7336C94.3125 61.0656 78.9949 74.0779 78.9949 74.0779Z" fill="#B6B6B6"/>
<path d="M127.663 95.031L122.232 72.7974" stroke="#727272" stroke-miterlimit="10"/>
<path d="M56.9157 82.4282L45.1842 64.9077L41.5469 65.6762C44.3133 75.0512 46.1575 78.7397 46.1575 78.7397" fill="#D9D9D9"/>
<path d="M43.3905 68.5451L41.5463 65.6251C41.5463 65.6251 38.0627 64.8054 36.7819 64.1906C35.5012 63.5246 34.6815 62.3976 34.3229 61.4242C34.0668 60.707 34.1692 58.5042 34.4766 58.4529C35.245 58.3505 36.7307 61.1681 37.3967 61.3218C38.1139 61.4755 40.368 61.3218 41.5975 61.4755C43.6979 61.7316 44.5688 63.7296 44.5688 63.7296L46.4643 67.2132" fill="#D9D9D9"/>
<path d="M49.2306 70.0309L47.1814 67.0596L41.8535 69.4161L43.5441 73.9756" fill="#E6E8EF"/>
<path d="M95.0819 62.1417C95.0819 62.1417 86.5266 56.0453 77.6639 63.5248C69.4159 70.4921 63.8831 84.5802 62.0389 84.5802C60.7581 84.5802 52.8176 74.4367 48.0532 68.238L42.418 71.2605C45.9528 82.1212 53.7397 100.564 65.3176 100.564C74.4364 100.564 93.0839 79.2523 93.0839 79.2523" fill="#B6B6B6"/>
<path d="M78.2266 93.8011L92.0585 82.2744" stroke="#727272" stroke-miterlimit="10"/>
<path d="M95.9004 63.2172L104.148 72.0287L105.224 61.834" fill="#E8E8E8"/>
<path d="M95.9004 63.2172L104.148 72.0287L105.224 61.834" stroke="#727272" stroke-miterlimit="10" stroke-linejoin="round"/>
<path d="M102.561 54.3031L104.866 59.3748C104.866 59.3748 105.788 62.2949 101.946 63.6269C97.6938 65.0613 95.1323 62.1412 95.1323 62.1412L94.5176 54.1494" fill="#D9D9D9"/>
<path d="M94.8766 59.2212C94.8766 59.2212 97.9504 63.0634 101.946 63.6269L99.0262 67.9302C96.6696 66.5982 93.8008 61.4241 93.8008 61.4241L94.8766 59.2212Z" fill="white"/>
<path d="M104.609 58.709C104.609 58.709 104.097 61.4242 101.945 63.627L105.275 66.1373C106.044 64.2418 105.941 61.3217 105.941 61.3217L104.609 58.709Z" fill="white"/>
<path d="M105.992 46.1067C105.992 46.1067 108.195 54.5083 104.916 56.6087C101.637 58.7091 95.8997 55.4817 95.5924 54.4571C95.285 53.3813 93.7481 44.4673 95.8997 43.8014C99.6907 42.5718 104.865 42.5206 105.992 46.1067Z" fill="#D9D9D9"/>
<path d="M105.89 48.8217C105.941 49.0266 105.788 49.2827 105.583 49.3339C105.378 49.3852 105.122 49.2315 105.07 49.0266C105.019 48.8216 105.173 48.5655 105.378 48.5143C105.634 48.463 105.839 48.5655 105.89 48.8217Z" fill="#16213E"/>
<path d="M105.173 46.3115C105.326 46.3115 105.941 46.4139 105.839 46.7213C105.787 46.875 105.531 46.875 105.429 46.875C105.275 46.875 105.173 46.8237 105.019 46.875C105.07 46.9262 105.07 46.9774 105.121 47.0287C105.173 47.1311 104.865 47.1311 104.814 47.1311C104.507 47.1311 104.097 47.0799 103.738 47.336C103.943 46.4139 104.917 46.2602 105.173 46.3115Z" fill="#16213E"/>
<path d="M100.613 49.9489C100.613 50.205 100.818 50.3587 101.074 50.3587C101.33 50.3587 101.484 50.1538 101.484 49.8976C101.484 49.6415 101.279 49.4878 101.023 49.4878C100.818 49.539 100.613 49.7439 100.613 49.9489Z" fill="#16213E"/>
<path d="M99.3841 48.2581C99.0767 48.4118 98.8206 48.668 98.8718 48.9241C98.923 49.1291 99.1279 49.0778 99.2304 48.9754C99.4353 48.8217 99.6915 48.668 99.9476 48.6168C99.8452 48.7192 99.7939 48.8729 99.7939 49.0266C100.614 48.9241 101.28 48.2581 101.382 47.4385C101.382 47.4897 100.87 47.7971 100.767 47.8483C100.306 48.0532 99.8452 48.0532 99.3841 48.2581Z" fill="#16213E"/>
<path d="M103.789 49.334C103.789 49.334 104.967 52.2541 104.558 52.5102C104.148 52.7664 102.662 52.7151 102.662 52.7151" stroke="#AFAFAF" stroke-miterlimit="10"/>
<path d="M103.842 57.0695C103.842 57.0695 100.512 58.3502 97.5918 55.9937" stroke="#AFAFAF" stroke-miterlimit="10"/>
<path d="M101.945 55.123C101.945 55.123 102.253 53.8423 104.353 53.8423" stroke="#AFAFAF" stroke-miterlimit="10"/>
<path d="M107.837 41.5983C107.786 41.1885 107.734 40.7786 107.478 40.4712C107.171 40.1126 106.659 40.0614 106.197 40.0614C104.609 40.0614 102.97 40.5737 101.689 41.4958C102.048 41.1885 102.407 40.8811 102.765 40.5737C103.072 40.3176 103.687 39.9589 103.38 39.4979C103.124 39.088 102.355 39.3442 101.945 39.3442C100.101 39.3442 98.3594 39.959 96.6688 40.6249C95.8491 40.9323 94.9782 41.2909 94.261 41.752C93.4926 42.213 92.8266 42.879 92.468 43.6987C92.1606 44.4159 92.1094 45.2356 92.1094 46.004C92.1094 47.3872 92.3143 48.8217 92.5704 50.2048C92.8266 51.7417 93.1852 54.713 95.1831 54.8667C95.593 54.918 96.0028 54.918 96.3102 54.713C96.6176 54.5081 96.72 54.0471 96.7713 53.6885C96.8737 53.0737 96.8225 52.4077 96.6688 51.793C97.0274 51.9979 97.386 52.3565 97.8471 52.3053C98.0008 52.3053 98.1545 52.2028 98.2057 52.0491C98.2569 51.9467 98.2057 51.8954 98.2057 51.793C98.052 50.3585 97.9495 48.9241 97.8471 47.4385C99.9475 46.9774 101.997 46.6188 104.097 46.3114C105.019 46.1577 105.993 46.004 106.761 45.3893C107.786 44.4671 107.939 42.9303 107.837 41.5983Z" fill="#16213E"/>
<path d="M97.0779 52.2539C96.7193 51.383 96.1045 50.3584 95.1824 50.9732C94.8238 51.1781 94.6701 51.6391 94.5164 52.049C94.1066 53.4322 95.0799 55.6351 96.4631 55.4301C97.1291 55.3277 97.4877 54.508 97.7951 53.8932" fill="#D9D9D9"/>
<path d="M222.693 143.801C222.693 139.242 224.64 134.683 227.97 131.558C229.609 130.021 231.556 128.842 233.656 128.023C234.835 127.562 240.521 127.152 240.521 127.152C240.521 127.152 239.855 131.506 238.728 133.709C236.115 138.832 230.839 143.135 222.693 143.801Z" fill="#ABABAB"/>
<path d="M239.445 156.763C241.494 154.252 244.466 152.459 247.693 151.896C250.921 151.332 254.302 151.896 257.119 153.535C257.222 153.586 257.324 153.638 257.324 153.74C257.376 153.842 257.273 153.996 257.171 154.099C254.507 157.07 250.408 158.658 246.464 158.248C244.773 158.095 241.085 157.326 239.445 156.763Z" fill="#BDBDBD"/>
<path d="M244.004 149.847C244.004 145.851 245.336 142.316 247.641 139.959C249.998 137.603 253.328 136.527 256.863 136.937C256.965 136.937 257.119 136.988 257.221 137.091C257.324 137.193 257.324 137.398 257.324 137.552C257.119 142.316 254.711 146.312 251.074 147.9C249.485 148.617 245.797 149.591 244.004 149.847Z" fill="#ABABAB"/>
<path d="M250.203 142.726C251.791 140.164 253.687 137.859 255.89 135.81C256.761 134.99 257.683 134.222 258.758 133.658C262.191 131.814 266.392 132.378 270.08 133.658C268.595 136.425 266.699 139.191 263.881 140.574C262.652 141.189 261.269 141.548 259.937 141.855C257.222 142.419 252.918 142.367 250.203 142.726Z" fill="#BDBDBD"/>
<path d="M248.258 136.066C241.393 132.48 240.368 125 240.214 122.234C240.112 120.492 240.215 118.545 241.649 117.316C250.153 120.287 252.305 126.076 248.258 136.066Z" fill="#ABABAB"/>
<path d="M218.696 134.99C219.209 131.353 219.721 127.408 218.082 124.129C217.467 122.951 216.647 121.927 215.725 120.953C213.471 118.648 210.602 116.752 207.375 116.752C206.811 120.185 207.477 123.771 209.27 126.742C211.063 129.714 213.983 131.968 217.262 133.043" fill="#ABABAB"/>
<path d="M238.626 158.863C234.784 157.582 231.556 154.662 229.866 151.025C228.175 147.388 228.073 142.982 229.609 139.293C229.661 139.14 229.763 138.935 229.917 138.884C230.07 138.832 230.224 138.935 230.378 138.986C236.32 142.367 240.368 152.255 238.626 158.863Z" fill="#BDBDBD"/>
<path d="M222.591 138.73C221.464 135.554 221.567 131.968 222.745 128.791C223.974 125.615 226.28 122.951 229.251 121.312C230.429 120.646 231.761 120.134 232.837 119.263C233.196 120.851 233.452 122.49 233.554 124.129C233.657 125.769 233.657 127.408 233.247 128.996C232.12 133.043 228.38 135.81 224.64 137.705" fill="#BDBDBD"/>
<path d="M217.621 138.115C211.474 138.884 203.892 136.374 200.613 130.585C211.115 125.205 217.621 133.402 217.621 138.115Z" fill="#BDBDBD"/>
<path d="M221.207 151.845C219.824 147.132 216.187 143.238 211.832 141.804C207.478 140.369 202.457 141.497 198.923 144.622C198.769 144.775 198.615 144.929 198.615 145.134C198.615 145.236 198.718 145.339 198.769 145.441C201.125 148.822 204.865 150.872 208.707 151.691C212.55 152.562 216.494 152.357 220.439 152.05" fill="#BDBDBD"/>
<path d="M213.268 126.64C215.675 128.997 217.417 131.917 218.749 134.99C220.184 138.269 221.208 141.753 222.079 145.185C223.974 152.562 225.05 160.093 225.819 167.624C226.229 171.876 226.536 176.128 226.997 180.38C226.997 180.533 227.202 180.533 227.202 180.38C227.048 176.538 226.69 172.695 226.331 168.853C225.972 165.062 225.511 161.22 224.948 157.429C224.384 153.638 223.667 149.847 222.745 146.107C221.874 142.624 220.849 139.14 219.466 135.81C218.032 132.378 216.136 129.048 213.421 126.486C213.319 126.435 213.216 126.538 213.268 126.64Z" fill="#727272"/>
<path d="M224.589 155.789C222.796 152.767 219.927 150.717 216.802 149.181C213.37 147.49 209.681 146.312 205.89 145.697C203.841 145.39 201.638 145.185 199.538 145.338C199.435 145.338 199.435 145.543 199.538 145.543C201.433 145.646 203.329 145.697 205.224 145.953C207.069 146.209 208.862 146.619 210.603 147.131C212.396 147.644 214.138 148.31 215.88 149.129C217.468 149.847 219.005 150.666 220.388 151.742C221.925 152.92 223.257 154.355 224.333 155.943C224.487 156.045 224.691 155.943 224.589 155.789Z" fill="#727272"/>
<path d="M222.745 146.824C222.745 144.007 222.437 141.189 222.693 138.32C222.95 135.707 223.616 133.044 224.743 130.636C225.357 129.304 226.177 128.126 226.997 126.947C227.048 126.845 226.945 126.794 226.843 126.845C225.972 127.767 225.255 128.945 224.691 130.072C224.128 131.251 223.616 132.48 223.257 133.71C222.489 136.373 222.232 139.089 222.284 141.804C222.335 143.494 222.386 145.134 222.591 146.824C222.642 146.876 222.745 146.876 222.745 146.824Z" fill="#727272"/>
<path d="M208.451 132.531C210.347 132.736 212.037 133.761 213.574 134.836C215.367 136.117 217.006 137.603 218.646 139.088C219.465 139.857 220.285 140.677 221.156 141.394C221.259 141.445 221.361 141.343 221.259 141.291C219.722 139.754 218.082 138.32 216.443 136.937C214.804 135.554 213.113 134.222 211.166 133.3C210.295 132.89 209.373 132.582 208.451 132.531C208.451 132.48 208.451 132.531 208.451 132.531Z" fill="#727272"/>
<path d="M236.219 167.88C236.782 164.96 237.499 162.142 238.575 159.376C239.651 156.66 241.034 154.048 242.674 151.64C245.952 146.773 250.255 142.572 255.225 139.498C256.608 138.628 258.042 137.859 259.528 137.142C261.065 136.425 262.602 135.912 264.139 135.298C264.292 135.246 264.241 135.042 264.087 135.042C262.653 135.4 261.27 135.964 259.938 136.578C258.606 137.193 257.274 137.859 255.993 138.628C253.432 140.113 251.075 141.906 248.872 143.904C244.518 147.951 240.983 152.869 238.678 158.351C237.397 161.373 236.372 164.601 236.014 167.88C236.014 167.982 236.219 167.982 236.219 167.88Z" fill="#727272"/>
<path d="M244.569 123.105C247.335 128.842 248.923 135.553 247.694 141.855C247.335 143.699 246.669 145.39 245.85 147.08C245.798 147.234 246.003 147.387 246.106 147.234C247.847 144.416 248.462 140.933 248.513 137.654C248.513 134.324 247.899 130.994 246.823 127.869C246.259 126.23 245.593 124.59 244.774 123.053C244.671 122.9 244.518 123.002 244.569 123.105Z" fill="#727272"/>
<path d="M249.23 162.91V168.904C249.23 192.726 242.98 199.488 242.98 199.488H223.564C223.564 199.488 217.314 192.726 217.314 168.904V162.91H249.23Z" fill="#F5F5F5"/>
<path d="M40.9316 199.488L57.3763 120.595" stroke="#544943" stroke-width="1.5" stroke-miterlimit="10"/>
<path d="M73.8216 199.488L57.377 120.595" stroke="#4C4C4C" stroke-width="1.5" stroke-miterlimit="10"/>
<path d="M207.068 199.488L223.564 120.595" stroke="#4C4C4C" stroke-width="1.5" stroke-miterlimit="10"/>
<path d="M240.009 199.488L223.564 120.595" stroke="#4C4C4C" stroke-width="1.5" stroke-miterlimit="10"/>
<path d="M237.96 115.881H41.4434V120.594H237.96V115.881Z" fill="#EAEAEA"/>
<path d="M228.483 106.865H159.067C157.838 106.865 156.915 105.738 157.12 104.508L165.112 59.6314C165.368 58.197 166.598 57.1724 168.032 57.1724H237.499C238.729 57.1724 239.651 58.2994 239.446 59.5289L231.454 104.406C231.198 105.84 229.969 106.865 228.483 106.865Z" fill="#555555"/>
<path d="M230.122 106.865H160.655C159.426 106.865 158.503 105.738 158.708 104.508L166.7 59.6314C166.956 58.197 168.186 57.1724 169.62 57.1724H239.087C240.317 57.1724 241.239 58.2994 241.034 59.5289L233.042 104.406C232.786 105.84 231.557 106.865 230.122 106.865Z" fill="#CACACA"/>
<path opacity="0.45" d="M217.316 106.865H177.203C176.486 106.865 175.923 106.199 176.076 105.533L180.687 79.6107C180.841 78.791 181.558 78.1763 182.377 78.1763H222.49C223.207 78.1763 223.771 78.8422 223.617 79.5082L219.007 105.43C218.904 106.25 218.187 106.865 217.316 106.865Z" fill="#B5B5B5"/>
<path d="M218.289 106.865H178.176C177.459 106.865 176.895 106.199 177.049 105.533L181.66 79.6107C181.813 78.791 182.53 78.1763 183.35 78.1763H223.463C224.18 78.1763 224.744 78.8422 224.59 79.5082L219.979 105.43C219.826 106.25 219.16 106.865 218.289 106.865Z" fill="#D0D0D0"/>
<path d="M209.426 91.5986H193.135V106.865H209.426V91.5986Z" fill="#9B9B9B"/>
<path d="M208.453 91.5986H193.084V95.9531L197.285 113.32H213.627L208.453 91.5986ZM204.559 108.761C202.715 108.761 200.82 106.609 200.256 103.996C199.693 101.383 200.717 99.2318 202.561 99.2318C204.406 99.2318 206.301 101.383 206.865 103.996C207.377 106.609 206.352 108.761 204.559 108.761Z" fill="#555555"/>
<path d="M184.17 113.371H220.645V115.83H181.711C181.659 114.498 182.786 113.371 184.17 113.371Z" fill="#555555"/>
<path d="M220.593 113.371H191.443V115.83H220.593V113.371Z" fill="#CACACA"/>
<path d="M209.426 91.5986H193.135L198.258 113.371H214.549L209.426 91.5986ZM205.43 108.761C203.586 108.761 201.69 106.609 201.127 103.996C200.563 101.383 201.588 99.2318 203.432 99.2318C205.276 99.2318 207.172 101.383 207.735 103.996C208.299 106.609 207.223 108.761 205.43 108.761Z" fill="#CACACA"/>
<g opacity="0.65">
<path opacity="0.65" d="M171.362 61.6294L170.439 67.0085H171.362L172.335 61.6294H171.362Z" fill="#B6B6B6"/>
<path opacity="0.65" d="M174.178 61.6294L173.205 67.0085H174.178L175.152 61.6294H174.178Z" fill="#B6B6B6"/>
<path opacity="0.65" d="M176.946 61.6294L176.023 67.0085H176.946L177.919 61.6294H176.946Z" fill="#B6B6B6"/>
<path opacity="0.65" d="M179.762 61.6294L178.789 67.0085H179.762L180.736 61.6294H179.762Z" fill="#B6B6B6"/>
<path opacity="0.65" d="M182.53 61.6294L181.607 67.0085H182.53L183.503 61.6294H182.53Z" fill="#B6B6B6"/>
</g>
<g opacity="0.65">
<path opacity="0.65" d="M208.042 61.6294L207.068 67.0085H208.042L208.964 61.6294H208.042Z" fill="#B6B6B6"/>
<path opacity="0.65" d="M210.962 61.6294L209.988 67.0085H210.962L211.935 61.6294H210.962Z" fill="#B6B6B6"/>
<path opacity="0.65" d="M213.882 61.6294L212.908 67.0085H213.882L214.855 61.6294H213.882Z" fill="#B6B6B6"/>
<path opacity="0.65" d="M216.801 61.6294L215.879 67.0085H216.801L217.774 61.6294H216.801Z" fill="#B6B6B6"/>
<path opacity="0.65" d="M219.774 61.6294L218.801 67.0085H219.774L220.748 61.6294H219.774Z" fill="#B6B6B6"/>
<path opacity="0.65" d="M222.694 61.6294L221.721 67.0085H222.694L223.667 61.6294H222.694Z" fill="#B6B6B6"/>
<path opacity="0.65" d="M225.614 61.6294L224.641 67.0085H225.614L226.587 61.6294H225.614Z" fill="#B6B6B6"/>
<path opacity="0.65" d="M228.585 61.6294L227.611 67.0085H228.585L229.507 61.6294H228.585Z" fill="#B6B6B6"/>
<path opacity="0.65" d="M231.505 61.6294L230.531 67.0085H231.505L232.478 61.6294H231.505Z" fill="#B6B6B6"/>
<path opacity="0.65" d="M234.425 61.6294L233.451 67.0085H234.425L235.398 61.6294H234.425Z" fill="#B6B6B6"/>
</g>
<g opacity="0.55">
<path opacity="0.55" d="M96.8221 103.586C96.8221 103.586 97.2832 103.484 97.4369 103.228C97.7955 102.715 97.1807 102.152 96.7709 101.896C96.2586 101.537 95.5414 101.435 95.2852 100.82C94.9779 100.103 95.4902 99.2829 96.1049 98.8731C96.6172 98.5145 97.1807 98.3608 97.7955 98.1559C98.4102 97.8997 99.0762 97.5411 99.4348 96.9264C99.8959 96.2091 99.7934 95.2358 99.8447 94.4161C100.101 91.1374 103.431 89.5493 106.248 89.4468C107.632 89.3956 109.783 89.9079 110.757 91.035C111.064 91.3936 111.32 91.8546 111.423 92.3157C111.576 93.0329 111.269 93.7501 110.808 94.2624C110.347 94.8259 109.681 95.1333 109.117 95.6456C108.554 96.1579 108.964 96.7214 108.81 97.3362C108.656 98.0022 108.195 98.3096 107.632 98.6169C106.402 99.3341 104.916 99.4878 103.533 99.8464C103.123 99.9489 102.662 100.103 102.355 100.359C101.894 100.717 101.638 101.23 101.33 101.691C100.716 102.51 99.7934 103.125 98.7688 103.33" fill="url(#paint0_linear_10096_34848)"/>
</g>
<path d="M104.66 111.783H101.945V110.502H104.609C105.48 110.502 106.146 109.785 106.146 108.965V106.762C106.146 105.892 105.429 105.226 104.609 105.226H101.945V103.945H104.609C106.197 103.945 107.427 105.226 107.427 106.762V108.965C107.478 110.502 106.197 111.783 104.66 111.783Z" fill="#EAEAEA"/>
<path d="M100.819 115.164H96.3105C94.5687 115.164 93.1855 113.781 93.1855 112.039V102.152H103.944V112.039C103.944 113.73 102.561 115.164 100.819 115.164Z" fill="#EAEAEA"/>
<path d="M91.4434 113.32C91.4434 113.32 91.5458 115.83 95.4905 115.83H101.689C105.634 115.83 105.736 113.32 105.736 113.32H91.4434Z" fill="#D0D0D0"/>
<path d="M178.073 114.857H121.055V115.882H178.073V114.857Z" fill="#555555"/>
<path d="M127.1 114.037H123.002V114.857H127.1V114.037Z" fill="#555555"/>
<path d="M133.247 114.037H129.148V114.857H133.247V114.037Z" fill="#555555"/>
<path d="M139.446 114.037H135.348V114.857H139.446V114.037Z" fill="#555555"/>
<path d="M145.645 114.037H141.547V114.857H145.645V114.037Z" fill="#555555"/>
<path d="M151.844 114.037H147.746V114.857H151.844V114.037Z" fill="#555555"/>
<path d="M157.991 114.037H153.893V114.857H157.991V114.037Z" fill="#555555"/>
<path d="M164.19 114.037H160.092V114.857H164.19V114.037Z" fill="#555555"/>
<path d="M170.389 114.037H166.291V114.857H170.389V114.037Z" fill="#555555"/>
<path d="M176.536 114.037H172.438V114.857H176.536V114.037Z" fill="#555555"/>
<path d="M178.79 114.857H121.771V115.882H178.79V114.857Z" fill="#CACACA"/>
<path d="M127.817 114.037H123.719V114.857H127.817V114.037Z" fill="#CACACA"/>
<path d="M134.016 114.037H129.918V114.857H134.016V114.037Z" fill="#CACACA"/>
<path d="M140.214 114.037H136.115V114.857H140.214V114.037Z" fill="#CACACA"/>
<path d="M146.362 114.037H142.264V114.857H146.362V114.037Z" fill="#CACACA"/>
<path d="M152.561 114.037H148.463V114.857H152.561V114.037Z" fill="#CACACA"/>
<path d="M158.759 114.037H154.66V114.857H158.759V114.037Z" fill="#CACACA"/>
<path d="M164.958 114.037H160.859V114.857H164.958V114.037Z" fill="#CACACA"/>
<path d="M171.106 114.037H167.008V114.857H171.106V114.037Z" fill="#CACACA"/>
<path d="M177.303 114.037H173.205V114.857H177.303V114.037Z" fill="#CACACA"/>
<path d="M40.6759 154.098C41.3931 151.281 41.0857 148.207 39.805 145.594C38.5242 142.982 36.3214 140.83 33.6574 139.652C32.5816 139.191 31.4033 138.832 30.43 138.166C30.2251 139.549 30.1738 140.984 30.1738 142.367C30.1738 143.75 30.3275 145.184 30.7886 146.465C32.0181 149.846 35.4505 151.947 38.7804 153.279" fill="#ABABAB"/>
<path d="M41.0849 163.166C41.1361 160.605 41.1361 157.992 40.9312 155.431C40.8287 154.303 40.7263 153.176 40.4189 152.049C40.0603 150.717 39.548 149.385 38.9332 148.156C38.216 146.722 37.2939 145.287 36.1156 144.262C36.0131 144.211 35.9107 144.314 36.0131 144.365C36.9353 145.441 37.7549 146.568 38.4722 147.849C39.1381 149.129 39.7017 150.461 40.0603 151.844C40.7263 154.201 40.7263 156.711 40.8287 159.119C40.8799 160.451 40.8799 161.834 40.9824 163.166C40.9824 163.269 41.0849 163.269 41.0849 163.166Z" fill="#727272"/>
<path d="M32.684 171.773C32.1717 167.879 30.02 164.242 26.8438 161.937C25.2557 160.81 23.4627 159.99 21.6184 159.58C20.5426 159.324 15.6758 159.58 15.6758 159.58C15.6758 159.58 16.7004 163.217 17.9299 164.959C20.7475 169.006 25.6655 172.08 32.684 171.773Z" fill="#ABABAB"/>
<path d="M28.4325 159.272C28.3301 156.916 27.869 154.559 27.1518 152.356C26.8444 151.434 26.537 150.563 26.0247 149.795C24.3854 147.233 21.3628 146.004 18.4428 145.492C18.3915 147.951 18.6989 150.563 20.0309 152.613C20.6456 153.535 21.4141 154.252 22.2338 154.969C23.8219 156.404 26.6907 157.992 28.4325 159.272Z" fill="#BDBDBD"/>
<path d="M44.9791 150.666C44.518 147.541 44.1082 144.16 45.5426 141.342C46.0549 140.318 46.7721 139.447 47.5918 138.627C49.4873 136.68 51.9975 135.041 54.7639 135.041C55.2762 137.961 54.6614 141.086 53.1245 143.648C51.5364 146.158 47.7967 149.744 44.9791 150.666Z" fill="#BDBDBD"/>
<path d="M39.9082 168.904C42.8283 169.519 45.9533 168.853 48.4123 167.162C50.8713 165.471 52.5107 162.705 52.9717 159.785C52.9717 159.631 53.023 159.529 52.9205 159.426C52.818 159.324 52.7156 159.324 52.5619 159.324C47.5414 159.221 41.2914 164.037 39.9082 168.904Z" fill="#BDBDBD"/>
<path d="M29.5599 157.582C33.7095 155.226 36.3734 150.564 36.4759 145.492C33.5046 145.338 31.1992 147.182 29.9185 148.771C28.0742 150.922 27.9205 154.816 29.5599 157.582Z" fill="#BDBDBD"/>
<path d="M32.5815 165.779C31.4545 163.012 31.8131 159.734 33.5037 157.275C35.1942 154.816 38.1143 153.228 41.0856 153.228C41.1881 153.228 41.3418 153.228 41.4442 153.33C41.4955 153.381 41.4955 153.484 41.4955 153.535C41.5979 156.096 40.4709 158.555 38.8828 160.553C37.2947 162.551 35.1942 164.088 33.1451 165.574" fill="#BDBDBD"/>
<path d="M49.4868 143.391C47.3864 145.389 45.8495 147.848 44.6712 150.512C43.4417 153.279 42.5196 156.199 41.7511 159.17C40.0606 165.523 39.1384 172.029 38.4725 178.586C38.1139 182.275 37.7553 186.014 37.6016 189.703C37.6016 189.857 37.8065 189.857 37.8065 189.703C38.2163 186.424 38.4212 183.145 38.7286 179.918C39.036 176.691 39.3946 173.412 39.9069 170.184C40.368 167.008 40.9827 163.832 41.7511 160.656C42.4684 157.633 43.3393 154.662 44.4663 151.742C45.6446 148.719 47.2839 145.799 49.5893 143.494C49.6917 143.443 49.5893 143.34 49.4868 143.391Z" fill="#727272"/>
<path d="M32.5816 170.133C32.5816 169.57 32.5304 169.006 32.5304 168.392C32.5304 167.726 32.5816 167.06 32.6841 166.445C32.7866 165.83 32.889 165.215 33.0427 164.601C33.1964 164.037 33.4013 163.525 33.4526 162.961C33.4526 162.859 33.2989 162.859 33.2989 162.91C32.9915 163.371 32.8378 164.037 32.7353 164.549C32.5816 165.164 32.4792 165.779 32.3767 166.445C32.2743 167.111 32.223 167.726 32.223 168.392C32.223 168.955 32.1718 169.57 32.3255 170.133C32.3767 170.338 32.5816 170.287 32.5816 170.133Z" fill="#727272"/>
<path d="M32.9392 148.975C31.7097 150.051 30.9412 151.639 30.4289 153.176C29.8142 155.072 29.5068 157.07 29.6093 159.068C29.6605 160.195 29.7629 161.322 30.1216 162.346C30.1728 162.449 30.3265 162.398 30.2752 162.295C29.8142 160.4 29.6605 158.453 29.8654 156.506C30.0703 154.662 30.5314 152.766 31.4023 151.127C31.8121 150.359 32.3244 149.59 32.9392 148.975C32.9392 148.924 32.9904 148.975 32.9392 148.975Z" fill="#727272"/>
<path d="M34.1177 184.58C34.1689 182.377 34.0153 180.174 33.8103 177.971C33.5542 175.666 33.2468 173.412 32.7857 171.158C31.8124 166.598 30.3267 162.09 28.0726 157.992C27.4579 156.865 26.7407 155.789 26.0234 154.713C25.255 153.689 24.4866 152.613 23.5644 151.742C23.462 151.639 23.3083 151.793 23.4107 151.895C24.128 152.818 24.8964 153.637 25.5624 154.611C26.2284 155.533 26.8431 156.506 27.4579 157.479C28.6362 159.477 29.6095 161.578 30.4292 163.781C32.0173 168.084 32.9907 172.643 33.503 177.203C33.7591 179.662 33.8616 182.07 34.0153 184.529C33.964 184.734 34.1177 184.734 34.1177 184.58Z" fill="#727272"/>
<path d="M51.0758 174.539V178.637C51.0758 194.877 45.6967 199.488 45.6967 199.488H29.0471C29.0471 199.488 23.668 194.877 23.668 178.637V174.539H51.0758Z" fill="#F5F5F5"/>
<path d="M14.498 199.488H275.973" stroke="#4C4C4C" stroke-width="2" stroke-miterlimit="10"/>
<path d="M128.12 16.28V23H125.99V12.995H128.18L132.815 19.475V12.995H134.945V23H132.89L128.12 16.28ZM136.438 18.005C136.438 17.015 136.663 16.13 137.113 15.35C137.563 14.56 138.183 13.945 138.973 13.505C139.773 13.055 140.668 12.83 141.658 12.83C142.658 12.83 143.553 13.055 144.343 13.505C145.143 13.945 145.768 14.56 146.218 15.35C146.668 16.13 146.893 17.015 146.893 18.005C146.893 18.995 146.668 19.885 146.218 20.675C145.768 21.455 145.143 22.07 144.343 22.52C143.553 22.96 142.658 23.18 141.658 23.18C140.668 23.18 139.773 22.96 138.973 22.52C138.183 22.07 137.563 21.455 137.113 20.675C136.663 19.885 136.438 18.995 136.438 18.005ZM144.703 18.005C144.703 17.385 144.578 16.825 144.328 16.325C144.078 15.825 143.718 15.435 143.248 15.155C142.788 14.865 142.258 14.72 141.658 14.72C141.058 14.72 140.528 14.865 140.068 15.155C139.608 15.435 139.253 15.825 139.003 16.325C138.753 16.825 138.628 17.385 138.628 18.005C138.628 18.625 138.753 19.185 139.003 19.685C139.253 20.185 139.608 20.58 140.068 20.87C140.528 21.15 141.058 21.29 141.658 21.29C142.258 21.29 142.788 21.15 143.248 20.87C143.718 20.58 144.078 20.185 144.328 19.685C144.578 19.185 144.703 18.625 144.703 18.005ZM152.225 12.995H156.17C157.21 12.995 158.13 13.205 158.93 13.625C159.73 14.035 160.355 14.62 160.805 15.38C161.255 16.14 161.48 17.015 161.48 18.005C161.48 18.995 161.255 19.87 160.805 20.63C160.355 21.38 159.73 21.965 158.93 22.385C158.13 22.795 157.21 23 156.17 23H152.225V12.995ZM156.17 21.125C156.81 21.125 157.365 20.985 157.835 20.705C158.315 20.425 158.68 20.05 158.93 19.58C159.18 19.1 159.305 18.575 159.305 18.005C159.305 17.085 159.03 16.335 158.48 15.755C157.93 15.165 157.16 14.87 156.17 14.87H154.355V21.125H156.17ZM168.854 21.275H164.384L163.754 23H161.414L165.284 12.995H167.954L171.809 23H169.484L168.854 21.275ZM164.954 19.43H168.269L166.619 14.84L164.954 19.43ZM174.076 14.87H171.151V12.995H179.131V14.87H176.221V23H174.076V14.87ZM185.905 21.275H181.435L180.805 23H178.465L182.335 12.995H185.005L188.86 23H186.535L185.905 21.275ZM182.005 19.43H185.32L183.67 14.84L182.005 19.43ZM125.99 27.995H133.07V29.825H128.12V32H132.965V33.83H128.12V38H125.99V27.995ZM134.079 33.005C134.079 32.015 134.304 31.13 134.754 30.35C135.204 29.56 135.824 28.945 136.614 28.505C137.414 28.055 138.309 27.83 139.299 27.83C140.299 27.83 141.194 28.055 141.984 28.505C142.784 28.945 143.409 29.56 143.859 30.35C144.309 31.13 144.534 32.015 144.534 33.005C144.534 33.995 144.309 34.885 143.859 35.675C143.409 36.455 142.784 37.07 141.984 37.52C141.194 37.96 140.299 38.18 139.299 38.18C138.309 38.18 137.414 37.96 136.614 37.52C135.824 37.07 135.204 36.455 134.754 35.675C134.304 34.885 134.079 33.995 134.079 33.005ZM142.344 33.005C142.344 32.385 142.219 31.825 141.969 31.325C141.719 30.825 141.359 30.435 140.889 30.155C140.429 29.865 139.899 29.72 139.299 29.72C138.699 29.72 138.169 29.865 137.709 30.155C137.249 30.435 136.894 30.825 136.644 31.325C136.394 31.825 136.269 32.385 136.269 33.005C136.269 33.625 136.394 34.185 136.644 34.685C136.894 35.185 137.249 35.58 137.709 35.87C138.169 36.15 138.699 36.29 139.299 36.29C139.899 36.29 140.429 36.15 140.889 35.87C141.359 35.58 141.719 35.185 141.969 34.685C142.219 34.185 142.344 33.625 142.344 33.005ZM146.029 27.995H148.189V33.935C148.189 34.655 148.384 35.23 148.774 35.66C149.174 36.08 149.754 36.29 150.514 36.29C151.254 36.29 151.819 36.08 152.209 35.66C152.609 35.23 152.809 34.655 152.809 33.935V27.995H154.969V33.995C154.969 35.285 154.594 36.305 153.844 37.055C153.094 37.805 151.984 38.18 150.514 38.18C149.034 38.18 147.914 37.805 147.154 37.055C146.404 36.305 146.029 35.29 146.029 34.01V27.995ZM159.072 31.28V38H156.942V27.995H159.132L163.767 34.475V27.995H165.897V38H163.842L159.072 31.28ZM167.87 27.995H171.815C172.855 27.995 173.775 28.205 174.575 28.625C175.375 29.035 176 29.62 176.45 30.38C176.9 31.14 177.125 32.015 177.125 33.005C177.125 33.995 176.9 34.87 176.45 35.63C176 36.38 175.375 36.965 174.575 37.385C173.775 37.795 172.855 38 171.815 38H167.87V27.995ZM171.815 36.125C172.455 36.125 173.01 35.985 173.48 35.705C173.96 35.425 174.325 35.05 174.575 34.58C174.825 34.1 174.95 33.575 174.95 33.005C174.95 32.085 174.675 31.335 174.125 30.755C173.575 30.165 172.805 29.87 171.815 29.87H170V36.125H171.815Z" fill="#A0A0A0"/>
</g>
<defs>
<linearGradient id="paint0_linear_10096_34848" x1="103.298" y1="103.563" x2="103.298" y2="89.4215" gradientUnits="userSpaceOnUse">
<stop stop-color="white" stop-opacity="0.1"/>
<stop offset="1" stop-color="white" stop-opacity="0.4"/>
</linearGradient>
<clipPath id="clip0_10096_34848">
<rect width="277.869" height="200" fill="white"/>
</clipPath>
</defs>
</svg>
